<svg width="194" height="30" viewBox="0 0 194 30" fill="none" xmlns="http://www.w3.org/2000/svg">
<path d="M0.656 23V0.599998H10.352C12.3573 0.599998 14.0853 0.930665 15.536 1.592C16.9867 2.232 18.1067 3.16 18.896 4.376C19.6853 5.592 20.08 7.04267 20.08 8.728C20.08 10.392 19.6853 11.832 18.896 13.048C18.1067 14.264 16.9867 15.2027 15.536 15.864C14.0853 16.504 12.3573 16.824 10.352 16.824H3.536L5.84 14.488V23H0.656ZM5.84 15.064L3.536 12.6H10.064C11.664 12.6 12.8587 12.2587 13.648 11.576C14.4373 10.8933 14.832 9.944 14.832 8.728C14.832 7.49067 14.4373 6.53067 13.648 5.848C12.8587 5.16533 11.664 4.824 10.064 4.824H3.536L5.84 2.36V15.064ZM23.3978 23V5.784H28.1658V10.648L27.4938 9.24C28.0058 8.024 28.8271 7.10667 29.9578 6.488C31.0884 5.848 32.4644 5.528 34.0858 5.528V10.136C33.8724 10.1147 33.6804 10.104 33.5098 10.104C33.3391 10.0827 33.1578 10.072 32.9658 10.072C31.6004 10.072 30.4911 10.4667 29.6378 11.256C28.8058 12.024 28.3898 13.2293 28.3898 14.872V23H23.3978ZM45.121 23.256C43.2863 23.256 41.6543 22.872 40.225 22.104C38.817 21.336 37.697 20.2907 36.865 18.968C36.0543 17.624 35.649 16.0987 35.649 14.392C35.649 12.664 36.0543 11.1387 36.865 9.816C37.697 8.472 38.817 7.42667 40.225 6.68C41.6543 5.912 43.2863 5.528 45.121 5.528C46.9343 5.528 48.5557 5.912 49.985 6.68C51.4143 7.42667 52.5343 8.46133 53.345 9.784C54.1557 11.1067 54.561 12.6427 54.561 14.392C54.561 16.0987 54.1557 17.624 53.345 18.968C52.5343 20.2907 51.4143 21.336 49.985 22.104C48.5557 22.872 46.9343 23.256 45.121 23.256ZM45.121 19.16C45.953 19.16 46.6997 18.968 47.361 18.584C48.0223 18.2 48.545 17.656 48.929 16.952C49.313 16.2267 49.505 15.3733 49.505 14.392C49.505 13.3893 49.313 12.536 48.929 11.832C48.545 11.128 48.0223 10.584 47.361 10.2C46.6997 9.816 45.953 9.624 45.121 9.624C44.289 9.624 43.5423 9.816 42.881 10.2C42.2197 10.584 41.6863 11.128 41.281 11.832C40.897 12.536 40.705 13.3893 40.705 14.392C40.705 15.3733 40.897 16.2267 41.281 16.952C41.6863 17.656 42.2197 18.2 42.881 18.584C43.5423 18.968 44.289 19.16 45.121 19.16ZM63.6898 23.256C62.2178 23.256 60.7991 23.0853 59.4338 22.744C58.0898 22.3813 57.0231 21.9333 56.2338 21.4L57.8978 17.816C58.6871 18.3067 59.6151 18.712 60.6818 19.032C61.7698 19.3307 62.8364 19.48 63.8818 19.48C65.0338 19.48 65.8444 19.3413 66.3138 19.064C66.8044 18.7867 67.0498 18.4027 67.0498 17.912C67.0498 17.5067 66.8578 17.208 66.4738 17.016C66.1111 16.8027 65.6204 16.6427 65.0017 16.536C64.3831 16.4293 63.7004 16.3227 62.9538 16.216C62.2284 16.1093 61.4924 15.9707 60.7458 15.8C59.9991 15.608 59.3164 15.3307 58.6978 14.968C58.0791 14.6053 57.5778 14.1147 57.1938 13.496C56.8311 12.8773 56.6497 12.0773 56.6497 11.096C56.6497 10.008 56.9591 9.048 57.5778 8.216C58.2178 7.384 59.1351 6.73333 60.3298 6.264C61.5244 5.77333 62.9538 5.528 64.6178 5.528C65.7911 5.528 66.9858 5.656 68.2018 5.912C69.4178 6.168 70.4311 6.54133 71.2418 7.032L69.5778 10.584C68.7458 10.0933 67.9031 9.76267 67.0498 9.592C66.2178 9.4 65.4071 9.304 64.6178 9.304C63.5084 9.304 62.6978 9.45333 62.1858 9.752C61.6738 10.0507 61.4178 10.4347 61.4178 10.904C61.4178 11.3307 61.5991 11.6507 61.9618 11.864C62.3458 12.0773 62.8471 12.248 63.4658 12.376C64.0844 12.504 64.7564 12.6213 65.4818 12.728C66.2284 12.8133 66.9751 12.952 67.7218 13.144C68.4684 13.336 69.1404 13.6133 69.7378 13.976C70.3564 14.3173 70.8578 14.7973 71.2418 15.416C71.6258 16.0133 71.8178 16.8027 71.8178 17.784C71.8178 18.8507 71.4978 19.8 70.8578 20.632C70.2178 21.4427 69.2898 22.0827 68.0738 22.552C66.8791 23.0213 65.4178 23.256 63.6898 23.256ZM81.9378 23.256C79.9111 23.256 78.3324 22.744 77.2018 21.72C76.0711 20.6747 75.5058 19.128 75.5058 17.08V1.976H80.4978V17.016C80.4978 17.7413 80.6898 18.3067 81.0738 18.712C81.4578 19.096 81.9804 19.288 82.6418 19.288C83.4311 19.288 84.1031 19.0747 84.6578 18.648L86.0018 22.168C85.4898 22.5307 84.8711 22.808 84.1458 23C83.4418 23.1707 82.7058 23.256 81.9378 23.256ZM72.8498 10.008V6.168H84.7858V10.008H72.8498ZM96.4648 23.256C94.6301 23.256 92.9981 22.872 91.5688 22.104C90.1608 21.336 89.0408 20.2907 88.2088 18.968C87.3981 17.624 86.9928 16.0987 86.9928 14.392C86.9928 12.664 87.3981 11.1387 88.2088 9.816C89.0408 8.472 90.1608 7.42667 91.5688 6.68C92.9981 5.912 94.6301 5.528 96.4648 5.528C98.2781 5.528 99.8994 5.912 101.329 6.68C102.758 7.42667 103.878 8.46133 104.689 9.784C105.499 11.1067 105.905 12.6427 105.905 14.392C105.905 16.0987 105.499 17.624 104.689 18.968C103.878 20.2907 102.758 21.336 101.329 22.104C99.8994 22.872 98.2781 23.256 96.4648 23.256ZM96.4648 19.16C97.2968 19.16 98.0434 18.968 98.7048 18.584C99.3661 18.2 99.8888 17.656 100.273 16.952C100.657 16.2267 100.849 15.3733 100.849 14.392C100.849 13.3893 100.657 12.536 100.273 11.832C99.8888 11.128 99.3661 10.584 98.7048 10.2C98.0434 9.816 97.2968 9.624 96.4648 9.624C95.6328 9.624 94.8861 9.816 94.2248 10.2C93.5634 10.584 93.0301 11.128 92.6248 11.832C92.2408 12.536 92.0488 13.3893 92.0488 14.392C92.0488 15.3733 92.2408 16.2267 92.6248 16.952C93.0301 17.656 93.5634 18.2 94.2248 18.584C94.8861 18.968 95.6328 19.16 96.4648 19.16ZM117.338 29.464C115.716 29.464 114.148 29.2613 112.634 28.856C111.14 28.472 109.892 27.8853 108.89 27.096L110.874 23.512C111.599 24.1093 112.516 24.5787 113.626 24.92C114.756 25.2827 115.866 25.464 116.954 25.464C118.724 25.464 120.004 25.0693 120.794 24.28C121.604 23.4907 122.01 22.3173 122.01 20.76V18.168L122.33 13.848L122.266 9.496V5.784H127.002V20.12C127.002 23.32 126.17 25.6773 124.506 27.192C122.842 28.7067 120.452 29.464 117.338 29.464ZM116.57 22.168C114.97 22.168 113.519 21.8267 112.218 21.144C110.938 20.44 109.903 19.4693 109.114 18.232C108.346 16.9733 107.962 15.512 107.962 13.848C107.962 12.1627 108.346 10.7013 109.114 9.464C109.903 8.20533 110.938 7.23467 112.218 6.552C113.519 5.86933 114.97 5.528 116.57 5.528C118.02 5.528 119.3 5.82667 120.41 6.424C121.519 7 122.383 7.90667 123.002 9.144C123.62 10.36 123.93 11.928 123.93 13.848C123.93 15.7467 123.62 17.3147 123.002 18.552C122.383 19.768 121.519 20.6747 120.41 21.272C119.3 21.8693 118.02 22.168 116.57 22.168ZM117.562 18.072C118.436 18.072 119.215 17.9013 119.898 17.56C120.58 17.1973 121.114 16.696 121.498 16.056C121.882 15.416 122.074 14.68 122.074 13.848C122.074 12.9947 121.882 12.2587 121.498 11.64C121.114 11 120.58 10.5093 119.898 10.168C119.215 9.80533 118.436 9.624 117.562 9.624C116.687 9.624 115.908 9.80533 115.226 10.168C114.543 10.5093 113.999 11 113.594 11.64C113.21 12.2587 113.018 12.9947 113.018 13.848C113.018 14.68 113.21 15.416 113.594 16.056C113.999 16.696 114.543 17.1973 115.226 17.56C115.908 17.9013 116.687 18.072 117.562 18.072ZM131.648 23V5.784H136.416V10.648L135.744 9.24C136.256 8.024 137.077 7.10667 138.208 6.488C139.338 5.848 140.714 5.528 142.336 5.528V10.136C142.122 10.1147 141.93 10.104 141.76 10.104C141.589 10.0827 141.408 10.072 141.216 10.072C139.85 10.072 138.741 10.4667 137.888 11.256C137.056 12.024 136.64 13.2293 136.64 14.872V23H131.648ZM154.739 23V19.64L154.419 18.904V12.888C154.419 11.8213 154.088 10.9893 153.427 10.392C152.787 9.79467 151.795 9.496 150.451 9.496C149.534 9.496 148.627 9.64533 147.731 9.944C146.856 10.2213 146.11 10.6053 145.491 11.096L143.699 7.608C144.638 6.94667 145.768 6.43467 147.091 6.072C148.414 5.70933 149.758 5.528 151.123 5.528C153.747 5.528 155.784 6.14667 157.235 7.384C158.686 8.62133 159.411 10.552 159.411 13.176V23H154.739ZM149.491 23.256C148.147 23.256 146.995 23.032 146.035 22.584C145.075 22.1147 144.339 21.4853 143.827 20.696C143.315 19.9067 143.059 19.0213 143.059 18.04C143.059 17.016 143.304 16.12 143.795 15.352C144.307 14.584 145.107 13.9867 146.195 13.56C147.283 13.112 148.702 12.888 150.451 12.888H155.027V15.8H150.995C149.822 15.8 149.011 15.992 148.563 16.376C148.136 16.76 147.923 17.24 147.923 17.816C147.923 18.456 148.168 18.968 148.659 19.352C149.171 19.7147 149.864 19.896 150.739 19.896C151.571 19.896 152.318 19.704 152.979 19.32C153.64 18.9147 154.12 18.328 154.419 17.56L155.187 19.864C154.824 20.9733 154.163 21.816 153.203 22.392C152.243 22.968 151.006 23.256 149.491 23.256ZM185.977 5.528C187.342 5.528 188.548 5.80533 189.593 6.36C190.66 6.89333 191.492 7.72533 192.089 8.856C192.708 9.96533 193.017 11.3947 193.017 13.144V23H188.025V13.912C188.025 12.5253 187.737 11.5013 187.161 10.84C186.585 10.1787 185.774 9.848 184.729 9.848C184.004 9.848 183.353 10.0187 182.777 10.36C182.201 10.68 181.753 11.1707 181.433 11.832C181.113 12.4933 180.953 13.336 180.953 14.36V23H175.961V13.912C175.961 12.5253 175.673 11.5013 175.097 10.84C174.542 10.1787 173.742 9.848 172.697 9.848C171.972 9.848 171.321 10.0187 170.745 10.36C170.169 10.68 169.721 11.1707 169.401 11.832C169.081 12.4933 168.921 13.336 168.921 14.36V23H163.929V5.784H168.697V10.488L167.801 9.112C168.398 7.93867 169.241 7.05333 170.329 6.456C171.438 5.83733 172.697 5.528 174.105 5.528C175.684 5.528 177.06 5.93333 178.233 6.744C179.428 7.53333 180.217 8.74933 180.601 10.392L178.841 9.912C179.417 8.568 180.334 7.50133 181.593 6.712C182.873 5.92267 184.334 5.528 185.977 5.528Z" fill="url(#paint0_linear_313_9)"/>
<defs>
<linearGradient id="paint0_linear_313_9" x1="8.66154" y1="11.8979" x2="196" y2="11.8979" gradientUnits="userSpaceOnUse">
<stop stop-color="#2668CA"/>
<stop offset="0.682292" stop-color="#A674E4"/>
</linearGradient>
</defs>
</svg>
